mastitorrents.com 
http://mastitorrents.com/forums/index.php

Info
     

     General
Complete name                    : SALT 2010 Unrated 720p Brrip Original Dual Audio [Eng-Hindi] Xvid [in AVI]-=[AJ]=-.avi
Format                           : AVI
File size                        : 1.51 GiB
Duration                         : 1h 44mn
Overall bit rate                 : 2 071 Kbps

Video
ID                               : 1
Format                           : AVC
Format/Info                      : Advanced Video Codec
Format profile                   : High@L4.1
Format settings, CABAC           : Yes
Duration                         : 1h 44mn
Bit rate                         : 1 774 Kbps
Nominal bit rate                 : 1 813 Kbps
Width                            : 1 280 pixels
Height                           : 536 pixels
Display aspect ratio             : 2.35:1
Frame rate                       : 23.976 fps
Resolution                       : 8 bits
Colorimetry                      : 4:2:0
Scan type                        : Progressive
Bits/(Pixel*Frame)               : 0.108
Stream size                      : 1.29 GiB (86%)


Audio #1
ID                               : 2
Format                           : MPEG Audio
Format version                   : Version 1
Format profile                   : Layer 3
Mode                             : Joint stereo
Codec ID                         : A_MPEG/L3
Codec ID/Hint                    : MP3
Duration                         : 1h 44mn
Bit rate mode                    : Constant
Bit rate                         : 128 Kbps
Channel(s)                       : 2 channels
Sampling rate                    : 44.1 KHz
Stream size                      : 95.3 MiB (6%)
Title                            : Hindi Audio by Arihant
Writing library                  : LAME3.98.2
Language                         : Hindi

Audio #2
ID                               : 3
Format                           : MPEG Audio
Format version                   : Version 1
Format profile                   : Layer 3
Mode                             : Joint stereo
Codec ID                         : A_MPEG/L3
Codec ID/Hint                    : MP3
Duration                         : 1h 44mn
Bit rate mode                    : Constant
Bit rate                         : 128 Kbps
Channel(s)                       : 2 channels
Sampling rate                    : 44.1 KHz
Stream size                      : 95.3 MiB (6%)
Title                            : English Audio by Arihant
Writing library                  : LAME3.98.2
Language                         : English